<mxfile host="65bd71144e">
    <diagram id="I-lWR6ro4nIplAqeZBtn" name="Page-1">
        <mxGraphModel dx="877" dy="437" grid="1" gridSize="10" guides="1" tooltips="1" connect="1" arrows="1" fold="1" page="1" pageScale="1" pageWidth="850" pageHeight="1100" math="0" shadow="0">
            <root>
                <mxCell id="0"/>
                <mxCell id="1" parent="0"/>
                <mxCell id="3" value="" style="rounded=0;whiteSpace=wrap;html=1;fillColor=#d5e8d4;strokeColor=#82b366;" vertex="1" parent="1">
                    <mxGeometry x="400" y="320" width="540" height="240" as="geometry"/>
                </mxCell>
                <mxCell id="8" value="Power Input&lt;div&gt;Power LED&lt;/div&gt;&lt;div&gt;5V Buck&lt;/div&gt;&lt;div&gt;3V3 Buck&lt;/div&gt;&lt;div&gt;&lt;br&gt;&lt;/div&gt;" style="rounded=0;whiteSpace=wrap;html=1;rotation=0;opacity=50;" vertex="1" parent="1">
                    <mxGeometry x="400" y="320" width="140" height="240" as="geometry"/>
                </mxCell>
                <mxCell id="5" value="SAM-M8Q GPS" style="rounded=0;whiteSpace=wrap;html=1;" vertex="1" parent="1">
                    <mxGeometry x="760" y="400" width="120" height="120" as="geometry"/>
                </mxCell>
                <mxCell id="4" value="GPIO Header" style="rounded=0;whiteSpace=wrap;html=1;" vertex="1" parent="1">
                    <mxGeometry x="440" y="330" width="460" height="40" as="geometry"/>
                </mxCell>
                <mxCell id="9" value="" style="rounded=0;whiteSpace=wrap;html=1;fillColor=#d5e8d4;strokeColor=#82b366;" vertex="1" parent="1">
                    <mxGeometry x="400" y="600" width="540" height="240" as="geometry"/>
                </mxCell>
                <mxCell id="10" value="&lt;div&gt;Power Input&lt;/div&gt;" style="rounded=0;whiteSpace=wrap;html=1;rotation=0;opacity=50;" vertex="1" parent="1">
                    <mxGeometry x="400" y="600" width="140" height="180" as="geometry"/>
                </mxCell>
                <mxCell id="12" value="IMU" style="rounded=0;whiteSpace=wrap;html=1;" vertex="1" parent="1">
                    <mxGeometry x="645" y="415" width="50" height="50" as="geometry"/>
                </mxCell>
                <mxCell id="13" value="EEPROM" style="rounded=0;whiteSpace=wrap;html=1;" vertex="1" parent="1">
                    <mxGeometry x="880" y="665" width="50" height="50" as="geometry"/>
                </mxCell>
                <mxCell id="14" value="GPIO Header" style="rounded=0;whiteSpace=wrap;html=1;" vertex="1" parent="1">
                    <mxGeometry x="440" y="610" width="460" height="40" as="geometry"/>
                </mxCell>
                <mxCell id="15" value="Bottom" style="text;html=1;align=center;verticalAlign=middle;whiteSpace=wrap;rounded=0;" vertex="1" parent="1">
                    <mxGeometry x="400" y="570" width="60" height="30" as="geometry"/>
                </mxCell>
                <mxCell id="16" value="Top" style="text;html=1;align=center;verticalAlign=middle;whiteSpace=wrap;rounded=0;" vertex="1" parent="1">
                    <mxGeometry x="400" y="290" width="60" height="30" as="geometry"/>
                </mxCell>
                <mxCell id="17" value="External Interface Connections" style="rounded=0;whiteSpace=wrap;html=1;" vertex="1" parent="1">
                    <mxGeometry x="400" y="780" width="270" height="60" as="geometry"/>
                </mxCell>
                <mxCell id="18" value="Power Input&lt;div&gt;ADC&lt;/div&gt;" style="rounded=0;whiteSpace=wrap;html=1;" vertex="1" parent="1">
                    <mxGeometry x="540" y="695" width="50" height="50" as="geometry"/>
                </mxCell>
                <mxCell id="19" value="Status LED" style="rounded=0;whiteSpace=wrap;html=1;" vertex="1" parent="1">
                    <mxGeometry x="550" y="380" width="50" height="50" as="geometry"/>
                </mxCell>
                <mxCell id="20" value="Onboard Temp&lt;div&gt;Sens&lt;/div&gt;" style="rounded=0;whiteSpace=wrap;html=1;" vertex="1" parent="1">
                    <mxGeometry x="645" y="695" width="50" height="50" as="geometry"/>
                </mxCell>
                <mxCell id="21" value="BME280" style="rounded=0;whiteSpace=wrap;html=1;" vertex="1" parent="1">
                    <mxGeometry x="645" y="500" width="50" height="50" as="geometry"/>
                </mxCell>
            </root>
        </mxGraphModel>
    </diagram>
</mxfile>